<svg xmlns="http://www.w3.org/2000/svg" width="75" viewBox="0 0 75 30" height="30" version="1.0"><path fill="#90789C" d="M 10.863281 2.976562 C 6.453125 2.976562 2.878906 6.550781 2.878906 10.960938 C 2.878906 15.367188 6.453125 18.945312 10.863281 18.945312 C 15.273438 18.945312 18.847656 15.367188 18.847656 10.960938 C 18.847656 6.550781 15.273438 2.976562 10.863281 2.976562"/><path fill="#C9C1EB" d="M 16.816406 10.160156 C 12.40625 10.160156 8.832031 13.734375 8.832031 18.144531 C 8.832031 22.554688 12.40625 26.128906 16.816406 26.128906 C 21.222656 26.128906 24.796875 22.554688 24.796875 18.144531 C 24.796875 13.734375 21.222656 10.160156 16.816406 10.160156"/><g><g><g><path d="M 4.765625 -5.296875 L 4.765625 0 L 1.453125 0 L 1.453125 -13.609375 L 6.828125 -13.609375 C 8.398438 -13.609375 9.625 -13.203125 10.5 -12.390625 C 11.382812 -11.578125 11.828125 -10.59375 11.828125 -9.4375 C 11.828125 -8.65625 11.585938 -7.890625 11.109375 -7.140625 C 10.628906 -6.390625 9.847656 -5.859375 8.765625 -5.546875 L 12.09375 0 L 8.21875 0 L 5.15625 -5.296875 Z M 4.765625 -11.09375 L 4.765625 -7.8125 L 6.828125 -7.8125 C 7.328125 -7.8125 7.722656 -7.957031 8.015625 -8.25 C 8.304688 -8.550781 8.453125 -8.941406 8.453125 -9.421875 C 8.453125 -9.910156 8.300781 -10.3125 8 -10.625 C 7.707031 -10.9375 7.316406 -11.09375 6.828125 -11.09375 Z M 4.765625 -11.09375" transform="translate(24.5 19.961)"/></g></g></g><g><g><g><path d="M 4.484375 -12.046875 C 4.109375 -11.671875 3.644531 -11.484375 3.09375 -11.484375 C 2.550781 -11.484375 2.09375 -11.671875 1.71875 -12.046875 C 1.34375 -12.421875 1.15625 -12.878906 1.15625 -13.421875 C 1.15625 -13.972656 1.34375 -14.4375 1.71875 -14.8125 C 2.09375 -15.1875 2.550781 -15.375 3.09375 -15.375 C 3.644531 -15.375 4.109375 -15.1875 4.484375 -14.8125 C 4.859375 -14.4375 5.046875 -13.972656 5.046875 -13.421875 C 5.046875 -12.878906 4.859375 -12.421875 4.484375 -12.046875 Z M 1.453125 0 L 1.453125 -10.8125 L 4.765625 -10.8125 L 4.765625 0 Z M 1.453125 0" transform="translate(37.45 19.961)"/></g></g></g><g><g><g><path d="M 0.078125 -10.8125 L 3.609375 -10.8125 L 6.0625 -2.765625 L 8.53125 -10.8125 L 12.0625 -10.8125 L 8.21875 0 L 3.921875 0 Z M 0.078125 -10.8125" transform="translate(43.673 19.961)"/></g></g></g><g><g><g><path d="M 4.484375 -12.046875 C 4.109375 -11.671875 3.644531 -11.484375 3.09375 -11.484375 C 2.550781 -11.484375 2.09375 -11.671875 1.71875 -12.046875 C 1.34375 -12.421875 1.15625 -12.878906 1.15625 -13.421875 C 1.15625 -13.972656 1.34375 -14.4375 1.71875 -14.8125 C 2.09375 -15.1875 2.550781 -15.375 3.09375 -15.375 C 3.644531 -15.375 4.109375 -15.1875 4.484375 -14.8125 C 4.859375 -14.4375 5.046875 -13.972656 5.046875 -13.421875 C 5.046875 -12.878906 4.859375 -12.421875 4.484375 -12.046875 Z M 1.453125 0 L 1.453125 -10.8125 L 4.765625 -10.8125 L 4.765625 0 Z M 1.453125 0" transform="translate(55.808 19.961)"/></g></g></g><g><g><g><path d="M 0.71875 -7.5625 C 0.71875 -8.519531 1.125 -9.320312 1.9375 -9.96875 C 2.75 -10.613281 3.847656 -10.9375 5.234375 -10.9375 C 6.628906 -10.9375 7.753906 -10.617188 8.609375 -9.984375 C 9.460938 -9.347656 9.914062 -8.484375 9.96875 -7.390625 L 6.578125 -7.390625 C 6.535156 -7.765625 6.40625 -8.019531 6.1875 -8.15625 C 5.96875 -8.289062 5.640625 -8.359375 5.203125 -8.359375 C 4.328125 -8.359375 3.890625 -8.09375 3.890625 -7.5625 C 3.890625 -7.082031 4.421875 -6.753906 5.484375 -6.578125 C 6.554688 -6.390625 7.535156 -6.109375 8.421875 -5.734375 C 8.867188 -5.554688 9.242188 -5.253906 9.546875 -4.828125 C 9.847656 -4.410156 10 -3.898438 10 -3.296875 C 10 -2.285156 9.566406 -1.457031 8.703125 -0.8125 C 7.835938 -0.175781 6.742188 0.140625 5.421875 0.140625 C 4.109375 0.140625 3.007812 -0.160156 2.125 -0.765625 C 1.25 -1.367188 0.773438 -2.257812 0.703125 -3.4375 L 4.09375 -3.4375 C 4.1875 -2.769531 4.648438 -2.4375 5.484375 -2.4375 C 5.867188 -2.4375 6.1875 -2.523438 6.4375 -2.703125 C 6.695312 -2.890625 6.828125 -3.125 6.828125 -3.40625 C 6.828125 -3.695312 6.613281 -3.925781 6.1875 -4.09375 C 5.769531 -4.257812 5.265625 -4.398438 4.671875 -4.515625 C 4.078125 -4.628906 3.476562 -4.773438 2.875 -4.953125 C 2.28125 -5.128906 1.769531 -5.429688 1.34375 -5.859375 C 0.925781 -6.296875 0.71875 -6.863281 0.71875 -7.5625 Z M 0.71875 -7.5625" transform="translate(62.03 19.961)"/></g></g></g></svg>