<svg xmlns="http://www.w3.org/2000/svg" width="30" viewBox="0 0 30 30" height="30" version="1.0"><defs><clipPath id="a"><path d="M 6.234375 1.449219 L 23.652344 1.449219 L 23.652344 26.128906 L 6.234375 26.128906 Z M 6.234375 1.449219"/></clipPath></defs><g clip-path="url(#a)"><path fill="#75628B" d="M 14.003906 2.015625 L 6.792969 9.292969 C 6.234375 9.855469 6.234375 10.769531 6.792969 11.332031 C 7.347656 11.894531 8.253906 11.894531 8.8125 11.332031 L 13.546875 6.554688 L 13.546875 24.679688 C 13.546875 25.476562 14.183594 26.121094 14.972656 26.121094 C 15.761719 26.121094 16.402344 25.476562 16.402344 24.679688 L 16.402344 6.476562 L 21.210938 11.332031 C 21.769531 11.894531 22.675781 11.894531 23.234375 11.332031 C 23.511719 11.050781 23.652344 10.683594 23.652344 10.3125 C 23.652344 9.945312 23.511719 9.574219 23.234375 9.292969 L 16.023438 2.015625 C 15.464844 1.453125 14.558594 1.453125 14.003906 2.015625"/></g></svg>