<svg xmlns="http://www.w3.org/2000/svg" width="30" viewBox="0 0 30 30" height="30" version="1.0"><defs><clipPath id="a"><path d="M 0.484375 0 L 29.515625 0 L 29.515625 29.03125 L 0.484375 29.03125 Z M 0.484375 0"/></clipPath></defs><g clip-path="url(#a)"><path fill="#49A0AE" d="M 15 29.03125 C 6.984375 29.03125 0.484375 22.53125 0.484375 14.515625 C 0.484375 6.5 6.984375 0 15 0 C 23.015625 0 29.515625 6.5 29.515625 14.515625 C 29.515625 22.53125 23.015625 29.03125 15 29.03125 Z M 15 29.03125"/></g><path fill="#FFF" d="M 13.117188 4.851562 C 11.460938 6.507812 9.804688 8.160156 8.148438 9.816406 C 6.574219 11.390625 7.734375 14.210938 9.960938 14.210938 C 10.765625 14.210938 11.566406 14.210938 12.367188 14.210938 C 12.367188 16.878906 12.367188 19.546875 12.367188 22.222656 C 12.367188 25.550781 17.527344 25.582031 17.527344 22.257812 C 17.527344 19.578125 17.527344 16.890625 17.527344 14.210938 C 18.230469 14.210938 18.925781 14.210938 19.628906 14.210938 C 19.785156 14.222656 19.945312 14.222656 20.101562 14.199219 C 21.207031 14.125 21.921875 13.464844 22.230469 12.632812 C 22.628906 11.820312 22.625 10.816406 21.878906 9.964844 C 21.773438 9.824219 21.660156 9.699219 21.519531 9.589844 C 19.933594 8.003906 18.351562 6.425781 16.765625 4.839844 C 15.765625 3.832031 14.109375 3.863281 13.117188 4.851562 Z M 13.117188 4.851562"/></svg>